999
"DXF R12 Output" (www.mydxf.blogspot.com)
 0 
SECTION
 2 
HEADER
 9 
$ACADVER
 1 
AC1009
 9 
$EXTMIN
 10 
 0 
 20 
 0 
 9 
$EXTMAX
 10 
 8.5 
 20 
 11 
 0 
ENDSEC
 0 
SECTION
 2 
ENTITIES
0
LINE
8
Layer 1
10
196.046023
20
203.596522
11
190.768800
21
201.256608
0
LINE
8
Layer 1
10
190.768800
20
201.256608
11
145.534635
21
179.490684
0
LINE
8
Layer 1
10
145.534635
20
179.490684
11
122.795766
21
168.558693
0
LINE
8
Layer 1
10
122.795766
20
168.558693
11
121.319259
21
167.935315
0
LINE
8
Layer 1
10
121.319259
20
167.935315
11
121.319138
21
171.008412
0
LINE
8
Layer 1
10
121.319138
20
171.008412
11
121.288019
21
176.428342
0
LINE
8
Layer 1
10
121.288019
20
176.428342
11
121.321791
21
177.080416
0
LINE
8
Layer 1
10
121.321791
20
177.080416
11
121.510137
21
177.596371
0
LINE
8
Layer 1
10
121.510137
20
177.596371
11
121.868621
21
178.015382
0
LINE
8
Layer 1
10
121.868621
20
178.015382
11
122.412803
21
178.376622
0
LINE
8
Layer 1
10
122.412803
20
178.376622
11
151.459250
21
194.089613
0
LINE
8
Layer 1
10
151.459250
20
194.089613
11
194.558293
21
217.437173
0
LINE
8
Layer 1
10
194.558293
20
217.437173
11
195.162018
21
217.722368
0
LINE
8
Layer 1
10
195.162018
20
217.722368
11
195.866512
21
217.905958
0
LINE
8
Layer 1
10
195.866512
20
217.905958
11
196.046023
21
203.596522
0
LINE
8
Layer 1
10
196.046023
20
203.596522
11
196.046023
21
203.596522
0
LINE
8
Layer 1
10
156.968063
20
214.015261
11
157.206033
21
214.081972
0
LINE
8
Layer 1
10
157.206033
20
214.081972
11
158.622321
21
215.051404
0
LINE
8
Layer 1
10
158.622321
20
215.051404
11
159.100036
21
215.239288
0
LINE
8
Layer 1
10
159.100036
20
215.239288
11
162.500745
21
217.444327
0
LINE
8
Layer 1
10
162.500745
20
217.444327
11
162.569442
21
217.459055
0
LINE
8
Layer 1
10
162.569442
20
217.459055
11
168.637863
21
221.064999
0
LINE
8
Layer 1
10
168.637863
20
221.064999
11
174.155510
21
224.579509
0
LINE
8
Layer 1
10
174.155510
20
224.579509
11
174.222512
21
224.600753
0
LINE
8
Layer 1
10
174.222512
20
224.600753
11
184.153757
21
230.712945
0
LINE
8
Layer 1
10
184.153757
20
230.712945
11
184.245434
21
230.720761
0
LINE
8
Layer 1
10
184.245434
20
230.720761
11
190.581732
21
234.650151
0
LINE
8
Layer 1
10
190.581732
20
234.650151
11
190.808898
21
234.708820
0
LINE
8
Layer 1
10
190.808898
20
234.708820
11
191.416903
21
235.161230
0
LINE
8
Layer 1
10
191.416903
20
235.161230
11
191.615550
21
235.205510
0
LINE
8
Layer 1
10
191.615550
20
235.205510
11
192.346092
21
235.741338
0
LINE
8
Layer 1
10
192.346092
20
235.741338
11
192.447571
21
235.755395
0
LINE
8
Layer 1
10
192.447571
20
235.755395
11
195.803661
21
237.373915
0
LINE
8
Layer 1
10
195.803661
20
237.373915
11
196.065692
21
228.205341
0
LINE
8
Layer 1
10
196.065692
20
228.205341
11
196.227552
21
225.887954
0
LINE
8
Layer 1
10
196.227552
20
225.887954
11
188.094257
21
221.265584
0
LINE
8
Layer 1
10
188.094257
20
221.265584
11
149.637496
21
198.863298
0
LINE
8
Layer 1
10
149.637496
20
198.863298
11
125.095259
21
184.507167
0
LINE
8
Layer 1
10
125.095259
20
184.507167
11
122.785164
21
183.088134
0
LINE
8
Layer 1
10
122.785164
20
183.088134
11
122.668876
21
183.078735
0
LINE
8
Layer 1
10
122.668876
20
183.078735
11
121.294834
21
182.460153
0
LINE
8
Layer 1
10
121.294834
20
182.460153
11
121.268761
21
190.786588
0
LINE
8
Layer 1
10
121.268761
20
190.786588
11
121.319139
21
191.411842
0
LINE
8
Layer 1
10
121.319139
20
191.411842
11
121.511423
21
191.911185
0
LINE
8
Layer 1
10
121.511423
20
191.911185
11
122.340004
21
192.680511
0
LINE
8
Layer 1
10
122.340004
20
192.680511
11
128.898220
21
196.825909
0
LINE
8
Layer 1
10
128.898220
20
196.825909
11
129.156020
21
196.900710
0
LINE
8
Layer 1
10
129.156020
20
196.900710
11
132.828829
21
199.224403
0
LINE
8
Layer 1
10
132.828829
20
199.224403
11
132.895718
21
199.233284
0
LINE
8
Layer 1
10
132.895718
20
199.233284
11
133.146195
21
199.449824
0
LINE
8
Layer 1
10
133.146195
20
199.449824
11
133.217024
21
199.453555
0
LINE
8
Layer 1
10
133.217024
20
199.453555
11
138.392121
21
202.660356
0
LINE
8
Layer 1
10
138.392121
20
202.660356
11
138.476967
21
202.668762
0
LINE
8
Layer 1
10
138.476967
20
202.668762
11
142.171634
21
204.950935
0
LINE
8
Layer 1
10
142.171634
20
204.950935
11
142.272031
21
204.992535
0
LINE
8
Layer 1
10
142.272031
20
204.992535
11
143.664112
21
205.859688
0
LINE
8
Layer 1
10
143.664112
20
205.859688
11
144.207392
21
206.105192
0
LINE
8
Layer 1
10
144.207392
20
206.105192
11
144.456375
21
206.373489
0
LINE
8
Layer 1
10
144.456375
20
206.373489
11
144.557726
21
206.378826
0
LINE
8
Layer 1
10
144.557726
20
206.378826
11
150.537650
21
210.084482
0
LINE
8
Layer 1
10
150.537650
20
210.084482
11
150.637612
21
210.093234
0
LINE
8
Layer 1
10
150.637612
20
210.093234
11
154.798205
21
212.712516
0
LINE
8
Layer 1
10
154.798205
20
212.712516
11
154.880597
21
212.724530
0
LINE
8
Layer 1
10
154.880597
20
212.724530
11
156.968063
21
214.015261
0
LINE
8
Layer 1
10
156.968063
20
214.015261
11
156.968063
21
214.015261
0
LINE
8
Layer 1
10
154.187697
20
137.039985
11
160.852915
21
136.381725
0
LINE
8
Layer 1
10
160.852915
20
136.381725
11
194.298328
21
132.258048
0
LINE
8
Layer 1
10
194.298328
20
132.258048
11
224.362686
21
128.521265
0
LINE
8
Layer 1
10
224.362686
20
128.521265
11
224.362686
21
121.542743
0
LINE
8
Layer 1
10
224.362686
20
121.542743
11
214.266416
21
121.542340
0
LINE
8
Layer 1
10
214.266416
20
121.542340
11
154.372683
21
121.636471
0
LINE
8
Layer 1
10
154.372683
20
121.636471
11
154.288369
21
123.492363
0
LINE
8
Layer 1
10
154.288369
20
123.492363
11
154.187697
21
137.039985
0
LINE
8
Layer 1
10
154.187697
20
137.039985
11
154.187697
21
137.039985
0
LINE
8
Layer 1
10
154.150297
20
176.426162
11
161.341499
21
174.433101
0
LINE
8
Layer 1
10
161.341499
20
174.433101
11
210.302225
21
159.728478
0
LINE
8
Layer 1
10
210.302225
20
159.728478
11
224.290161
21
155.470911
0
LINE
8
Layer 1
10
224.290161
20
155.470911
11
224.290161
21
147.488381
0
LINE
8
Layer 1
10
224.290161
20
147.488381
11
154.318907
21
164.741780
0
LINE
8
Layer 1
10
154.318907
20
164.741780
11
154.150297
21
176.426162
0
LINE
8
Layer 1
10
154.150297
20
176.426162
11
154.150297
21
176.426162
0
LINE
8
Layer 1
10
155.311029
20
156.369175
11
160.485383
21
155.501238
0
LINE
8
Layer 1
10
160.485383
20
155.501238
11
201.448610
21
147.116957
0
LINE
8
Layer 1
10
201.448610
20
147.116957
11
222.753209
21
142.732476
0
LINE
8
Layer 1
10
222.753209
20
142.732476
11
224.248191
21
142.354302
0
LINE
8
Layer 1
10
224.248191
20
142.354302
11
224.248191
21
133.930828
0
LINE
8
Layer 1
10
224.248191
20
133.930828
11
199.772600
21
138.191060
0
LINE
8
Layer 1
10
199.772600
20
138.191060
11
171.072724
21
143.119322
0
LINE
8
Layer 1
10
171.072724
20
143.119322
11
156.911801
21
145.564502
0
LINE
8
Layer 1
10
156.911801
20
145.564502
11
155.425362
21
145.651222
0
LINE
8
Layer 1
10
155.425362
20
145.651222
11
155.311029
21
156.369175
0
LINE
8
Layer 1
10
155.311029
20
156.369175
11
155.311029
21
156.369175
0
LINE
8
Layer 1
10
154.082746
20
137.063417
11
154.288369
21
123.492363
0
LINE
8
Layer 1
10
154.288369
20
123.492363
11
154.250629
21
121.665830
0
LINE
8
Layer 1
10
154.250629
20
121.665830
11
151.199964
21
121.461369
0
LINE
8
Layer 1
10
151.199964
20
121.461369
11
123.557685
21
121.429427
0
LINE
8
Layer 1
10
123.557685
20
121.429427
11
121.236666
21
121.429362
0
LINE
8
Layer 1
10
121.236666
20
121.429362
11
121.129994
21
122.513225
0
LINE
8
Layer 1
10
121.129994
20
122.513225
11
121.117011
21
130.316454
0
LINE
8
Layer 1
10
121.117011
20
130.316454
11
121.254112
21
131.103297
0
LINE
8
Layer 1
10
121.254112
20
131.103297
11
121.513670
21
131.352447
0
LINE
8
Layer 1
10
121.513670
20
131.352447
11
121.972876
21
131.502507
0
LINE
8
Layer 1
10
121.972876
20
131.502507
11
154.082746
21
137.063417
0
LINE
8
Layer 1
10
154.082746
20
137.063417
11
154.082746
21
137.063417
0
LINE
8
Layer 1
10
196.116045
20
203.529472
11
195.956752
21
217.901275
0
LINE
8
Layer 1
10
195.956752
20
217.901275
11
196.341259
21
218.491716
0
LINE
8
Layer 1
10
196.341259
20
218.491716
11
196.757405
21
218.730118
0
LINE
8
Layer 1
10
196.757405
20
218.730118
11
197.219659
21
218.622347
0
LINE
8
Layer 1
10
197.219659
20
218.622347
11
197.742494
21
218.174272
0
LINE
8
Layer 1
10
197.742494
20
218.174272
11
209.815772
21
204.934770
0
LINE
8
Layer 1
10
209.815772
20
204.934770
11
215.535678
21
198.571474
0
LINE
8
Layer 1
10
215.535678
20
198.571474
11
221.357431
21
192.307650
0
LINE
8
Layer 1
10
221.357431
20
192.307650
11
222.763484
21
190.697118
0
LINE
8
Layer 1
10
222.763484
20
190.697118
11
223.801620
21
188.998013
0
LINE
8
Layer 1
10
223.801620
20
188.998013
11
224.372080
21
187.111371
0
LINE
8
Layer 1
10
224.372080
20
187.111371
11
224.450756
21
186.066798
0
LINE
8
Layer 1
10
224.450756
20
186.066798
11
224.375104
21
184.938228
0
LINE
8
Layer 1
10
224.375104
20
184.938228
11
224.245881
21
181.780070
0
LINE
8
Layer 1
10
224.245881
20
181.780070
11
224.323089
21
178.410890
0
LINE
8
Layer 1
10
224.323089
20
178.410890
11
196.116045
21
203.529472
0
LINE
8
Layer 1
10
196.116045
20
203.529472
11
196.116045
21
203.529472
0
LINE
8
Layer 1
10
153.156302
20
253.760726
11
153.416508
21
253.748670
0
LINE
8
Layer 1
10
153.416508
20
253.748670
11
153.602317
21
253.706158
0
LINE
8
Layer 1
10
153.602317
20
253.706158
11
180.846841
21
232.770003
0
LINE
8
Layer 1
10
180.846841
20
232.770003
11
176.295590
21
229.939454
0
LINE
8
Layer 1
10
176.295590
20
229.939454
11
170.433891
21
226.362949
0
LINE
8
Layer 1
10
170.433891
20
226.362949
11
169.860580
21
226.060889
0
LINE
8
Layer 1
10
169.860580
20
226.060889
11
169.334152
21
225.959535
0
LINE
8
Layer 1
10
169.334152
20
225.959535
11
168.805407
21
226.069798
0
LINE
8
Layer 1
10
168.805407
20
226.069798
11
168.225146
21
226.402587
0
LINE
8
Layer 1
10
168.225146
20
226.402587
11
153.461886
21
236.927722
0
LINE
8
Layer 1
10
153.461886
20
236.927722
11
153.221769
21
238.226955
0
LINE
8
Layer 1
10
153.221769
20
238.226955
11
153.156302
21
253.760726
0
LINE
8
Layer 1
10
153.156302
20
253.760726
11
153.156302
21
253.760726
0
LINE
8
Layer 1
10
153.255294
20
221.865321
11
123.006718
21
201.803473
0
LINE
8
Layer 1
10
123.006718
20
201.803473
11
121.216043
21
200.670210
0
LINE
8
Layer 1
10
121.216043
20
200.670210
11
121.221195
21
206.385657
0
LINE
8
Layer 1
10
121.221195
20
206.385657
11
121.109247
21
208.901324
0
LINE
8
Layer 1
10
121.109247
20
208.901324
11
121.165278
21
210.105246
0
LINE
8
Layer 1
10
121.165278
20
210.105246
11
121.490049
21
211.166964
0
LINE
8
Layer 1
10
121.490049
20
211.166964
11
122.169532
21
211.997143
0
LINE
8
Layer 1
10
122.169532
20
211.997143
11
123.126998
21
212.681683
0
LINE
8
Layer 1
10
123.126998
20
212.681683
11
125.260785
21
213.926458
0
LINE
8
Layer 1
10
125.260785
20
213.926458
11
151.831529
21
231.668368
0
LINE
8
Layer 1
10
151.831529
20
231.668368
11
152.878186
21
232.121675
0
LINE
8
Layer 1
10
152.878186
20
232.121675
11
153.128245
21
231.204248
0
LINE
8
Layer 1
10
153.128245
20
231.204248
11
153.220623
21
230.358413
0
LINE
8
Layer 1
10
153.220623
20
230.358413
11
153.255294
21
221.865321
0
LINE
8
Layer 1
10
153.255294
20
221.865321
11
153.255294
21
221.865321
0
LINE
8
Layer 1
10
154.063755
20
176.422835
11
154.215909
21
164.772253
0
LINE
8
Layer 1
10
154.215909
20
164.772253
11
136.663434
21
158.498500
0
LINE
8
Layer 1
10
136.663434
20
158.498500
11
121.123454
21
153.079425
0
LINE
8
Layer 1
10
121.123454
20
153.079425
11
121.188841
21
155.613495
0
LINE
8
Layer 1
10
121.188841
20
155.613495
11
121.082726
21
158.012387
0
LINE
8
Layer 1
10
121.082726
20
158.012387
11
121.040749
21
159.929280
0
LINE
8
Layer 1
10
121.040749
20
159.929280
11
121.232668
21
160.718118
0
LINE
8
Layer 1
10
121.232668
20
160.718118
11
121.572197
21
161.412233
0
LINE
8
Layer 1
10
121.572197
20
161.412233
11
122.063590
21
162.025389
0
LINE
8
Layer 1
10
122.063590
20
162.025389
11
122.711099
21
162.571348
0
LINE
8
Layer 1
10
122.711099
20
162.571348
11
124.491477
21
163.516727
0
LINE
8
Layer 1
10
124.491477
20
163.516727
11
139.280017
21
169.884406
0
LINE
8
Layer 1
10
139.280017
20
169.884406
11
154.063755
21
176.422835
0
LINE
8
Layer 1
10
154.063755
20
176.422835
11
154.063755
21
176.422835
0
LINE
8
Layer 1
10
196.303694
20
225.810747
11
196.065692
21
228.205341
0
LINE
8
Layer 1
10
196.065692
20
228.205341
11
195.848167
21
237.418535
0
LINE
8
Layer 1
10
195.848167
20
237.418535
11
196.115867
21
238.098111
0
LINE
8
Layer 1
10
196.115867
20
238.098111
11
197.935630
21
236.344386
0
LINE
8
Layer 1
10
197.935630
20
236.344386
11
199.670103
21
234.519159
0
LINE
8
Layer 1
10
199.670103
20
234.519159
11
219.191884
21
211.077120
0
LINE
8
Layer 1
10
219.191884
20
211.077120
11
223.605288
21
205.831638
0
LINE
8
Layer 1
10
223.605288
20
205.831638
11
224.091948
21
204.946253
0
LINE
8
Layer 1
10
224.091948
20
204.946253
11
224.291938
21
203.959936
0
LINE
8
Layer 1
10
224.291938
20
203.959936
11
224.323266
21
193.914397
0
LINE
8
Layer 1
10
224.323266
20
193.914397
11
196.303694
21
225.810747
0
LINE
8
Layer 1
10
196.303694
20
225.810747
11
196.303694
21
225.810747
0
LINE
8
Layer 1
10
196.532362
20
193.571056
11
197.180683
21
193.659930
0
LINE
8
Layer 1
10
197.180683
20
193.659930
11
197.697810
21
193.594973
0
LINE
8
Layer 1
10
197.697810
20
193.594973
11
215.671432
21
178.141462
0
LINE
8
Layer 1
10
215.671432
20
178.141462
11
223.722012
21
171.153009
0
LINE
8
Layer 1
10
223.722012
20
171.153009
11
224.108018
21
170.730260
0
LINE
8
Layer 1
10
224.108018
20
170.730260
11
224.300335
21
170.250125
0
LINE
8
Layer 1
10
224.300335
20
170.250125
11
224.326448
21
161.380733
0
LINE
8
Layer 1
10
224.326448
20
161.380733
11
220.058174
21
164.554728
0
LINE
8
Layer 1
10
220.058174
20
164.554728
11
196.678380
21
182.132896
0
LINE
8
Layer 1
10
196.678380
20
182.132896
11
196.532362
21
193.571056
0
LINE
8
Layer 1
10
196.532362
20
193.571056
11
196.532362
21
193.571056
0
LINE
8
Layer 1
10
196.445643
20
193.569442
11
196.606712
21
182.186123
0
LINE
8
Layer 1
10
196.606712
20
182.186123
11
180.889183
21
176.190017
0
LINE
8
Layer 1
10
180.889183
20
176.190017
11
179.192222
21
175.810490
0
LINE
8
Layer 1
10
179.192222
20
175.810490
11
178.344849
21
175.857353
0
LINE
8
Layer 1
10
178.344849
20
175.857353
11
177.459810
21
176.077605
0
LINE
8
Layer 1
10
177.459810
20
176.077605
11
167.018778
21
179.390141
0
LINE
8
Layer 1
10
167.018778
20
179.390141
11
166.379121
21
179.712149
0
LINE
8
Layer 1
10
166.379121
20
179.712149
11
196.445643
21
193.569442
0
LINE
8
Layer 1
10
196.445643
20
193.569442
11
196.445643
21
193.569442
0
LINE
8
Layer 1
10
189.762177
20
97.085158
11
188.753142
21
96.007159
0
LINE
8
Layer 1
10
188.753142
20
96.007159
11
188.089722
21
94.813094
0
LINE
8
Layer 1
10
188.089722
20
94.813094
11
187.729507
21
93.505639
0
LINE
8
Layer 1
10
187.729507
20
93.505639
11
187.630091
21
92.087472
0
LINE
8
Layer 1
10
187.630091
20
92.087472
11
187.641249
21
81.631728
0
LINE
8
Layer 1
10
187.641249
20
81.631728
11
184.565876
21
81.631728
0
LINE
8
Layer 1
10
184.565876
20
81.631728
11
184.529864
21
91.970119
0
LINE
8
Layer 1
10
184.529864
20
91.970119
11
184.316323
21
93.795544
0
LINE
8
Layer 1
10
184.316323
20
93.795544
11
183.735824
21
95.517960
0
LINE
8
Layer 1
10
183.735824
20
95.517960
11
183.259356
21
96.289047
0
LINE
8
Layer 1
10
183.259356
20
96.289047
11
182.664848
21
96.940262
0
LINE
8
Layer 1
10
182.664848
20
96.940262
11
181.970688
21
97.467735
0
LINE
8
Layer 1
10
181.970688
20
97.467735
11
181.195267
21
97.867595
0
LINE
8
Layer 1
10
181.195267
20
97.867595
11
179.474196
21
98.268992
0
LINE
8
Layer 1
10
179.474196
20
98.268992
11
177.648752
21
98.113486
0
LINE
8
Layer 1
10
177.648752
20
98.113486
11
176.812938
21
97.826809
0
LINE
8
Layer 1
10
176.812938
20
97.826809
11
176.045282
21
97.397810
0
LINE
8
Layer 1
10
176.045282
20
97.397810
11
174.766464
21
96.175485
0
LINE
8
Layer 1
10
174.766464
20
96.175485
11
173.916329
21
94.571801
0
LINE
8
Layer 1
10
173.916329
20
94.571801
11
173.684527
21
93.666101
0
LINE
8
Layer 1
10
173.684527
20
93.666101
11
173.598907
21
92.712046
0
LINE
8
Layer 1
10
173.598907
20
92.712046
11
173.591140
21
81.661346
0
LINE
8
Layer 1
10
173.591140
20
81.661346
11
170.449200
21
81.661346
0
LINE
8
Layer 1
10
170.449200
20
81.661346
11
170.449200
21
100.983139
0
LINE
8
Layer 1
10
170.449200
20
100.983139
11
173.583630
21
100.983139
0
LINE
8
Layer 1
10
173.583630
20
100.983139
11
173.583630
21
99.311182
0
LINE
8
Layer 1
10
173.583630
20
99.311182
11
175.835887
21
100.225573
0
LINE
8
Layer 1
10
175.835887
20
100.225573
11
177.736322
21
100.842113
0
LINE
8
Layer 1
10
177.736322
20
100.842113
11
179.366599
21
101.150559
0
LINE
8
Layer 1
10
179.366599
20
101.150559
11
180.808382
21
101.140669
0
LINE
8
Layer 1
10
180.808382
20
101.140669
11
182.143334
21
100.802202
0
LINE
8
Layer 1
10
182.143334
20
100.802202
11
183.453119
21
100.124915
0
LINE
8
Layer 1
10
183.453119
20
100.124915
11
184.819400
21
99.098566
0
LINE
8
Layer 1
10
184.819400
20
99.098566
11
186.323841
21
97.712913
0
LINE
8
Layer 1
10
186.323841
20
97.712913
11
187.878276
21
99.170947
0
LINE
8
Layer 1
10
187.878276
20
99.170947
11
189.602396
21
100.283917
0
LINE
8
Layer 1
10
189.602396
20
100.283917
11
191.523517
21
100.989222
0
LINE
8
Layer 1
10
191.523517
20
100.989222
11
193.668958
21
101.224258
0
LINE
8
Layer 1
10
193.668958
20
101.224258
11
195.254735
21
101.048859
0
LINE
8
Layer 1
10
195.254735
20
101.048859
11
196.751042
21
100.574482
0
LINE
8
Layer 1
10
196.751042
20
100.574482
11
198.121661
21
99.833947
0
LINE
8
Layer 1
10
198.121661
20
99.833947
11
199.330371
21
98.860072
0
LINE
8
Layer 1
10
199.330371
20
98.860072
11
200.340953
21
97.685677
0
LINE
8
Layer 1
10
200.340953
20
97.685677
11
201.117186
21
96.343580
0
LINE
8
Layer 1
10
201.117186
20
96.343580
11
201.622852
21
94.866601
0
LINE
8
Layer 1
10
201.622852
20
94.866601
11
201.821729
21
93.287559
0
LINE
8
Layer 1
10
201.821729
20
93.287559
11
201.838314
21
81.687216
0
LINE
8
Layer 1
10
201.838314
20
81.687216
11
198.690884
21
81.687216
0
LINE
8
Layer 1
10
198.690884
20
81.687216
11
198.688365
21
90.486393
0
LINE
8
Layer 1
10
198.688365
20
90.486393
11
198.714546
21
92.013767
0
LINE
8
Layer 1
10
198.714546
20
92.013767
11
198.614209
21
93.521217
0
LINE
8
Layer 1
10
198.614209
20
93.521217
11
198.104049
21
95.192369
0
LINE
8
Layer 1
10
198.104049
20
95.192369
11
197.270696
21
96.489127
0
LINE
8
Layer 1
10
197.270696
20
96.489127
11
196.190555
21
97.423593
0
LINE
8
Layer 1
10
196.190555
20
97.423593
11
194.940030
21
98.007870
0
LINE
8
Layer 1
10
194.940030
20
98.007870
11
193.595525
21
98.254062
0
LINE
8
Layer 1
10
193.595525
20
98.254062
11
192.233445
21
98.174272
0
LINE
8
Layer 1
10
192.233445
20
98.174272
11
190.930194
21
97.780603
0
LINE
8
Layer 1
10
190.930194
20
97.780603
11
189.762177
21
97.085158
0
LINE
8
Layer 1
10
189.762177
20
97.085158
11
189.762177
21
97.085158
0
LINE
8
Layer 1
10
288.098040
20
89.406793
11
286.880783
21
89.899824
0
LINE
8
Layer 1
10
286.880783
20
89.899824
11
285.706232
21
90.174203
0
LINE
8
Layer 1
10
285.706232
20
90.174203
11
278.042110
21
90.233244
0
LINE
8
Layer 1
10
278.042110
20
90.233244
11
276.892675
21
90.363920
0
LINE
8
Layer 1
10
276.892675
20
90.363920
11
275.848590
21
90.694021
0
LINE
8
Layer 1
10
275.848590
20
90.694021
11
274.925713
21
91.205648
0
LINE
8
Layer 1
10
274.925713
20
91.205648
11
274.139902
21
91.880904
0
LINE
8
Layer 1
10
274.139902
20
91.880904
11
273.507014
21
92.701890
0
LINE
8
Layer 1
10
273.507014
20
92.701890
11
273.042907
21
93.650709
0
LINE
8
Layer 1
10
273.042907
20
93.650709
11
272.763439
21
94.709462
0
LINE
8
Layer 1
10
272.763439
20
94.709462
11
272.684466
21
95.860251
0
LINE
8
Layer 1
10
272.684466
20
95.860251
11
272.813855
21
96.932593
0
LINE
8
Layer 1
10
272.813855
20
96.932593
11
273.140169
21
97.920316
0
LINE
8
Layer 1
10
273.140169
20
97.920316
11
273.644790
21
98.805511
0
LINE
8
Layer 1
10
273.644790
20
98.805511
11
274.309098
21
99.570271
0
LINE
8
Layer 1
10
274.309098
20
99.570271
11
275.114473
21
100.196687
0
LINE
8
Layer 1
10
275.114473
20
100.196687
11
276.042296
21
100.666851
0
LINE
8
Layer 1
10
276.042296
20
100.666851
11
277.073948
21
100.962855
0
LINE
8
Layer 1
10
277.073948
20
100.962855
11
278.190808
21
101.066790
0
LINE
8
Layer 1
10
278.190808
20
101.066790
11
291.453031
21
101.068680
0
LINE
8
Layer 1
10
291.453031
20
101.068680
11
291.453031
21
97.916147
0
LINE
8
Layer 1
10
291.453031
20
97.916147
11
290.077019
21
97.916179
0
LINE
8
Layer 1
10
290.077019
20
97.916179
11
278.579512
21
97.950770
0
LINE
8
Layer 1
10
278.579512
20
97.950770
11
277.457708
21
97.781264
0
LINE
8
Layer 1
10
277.457708
20
97.781264
11
276.603266
21
97.282580
0
LINE
8
Layer 1
10
276.603266
20
97.282580
11
276.056563
21
96.560125
0
LINE
8
Layer 1
10
276.056563
20
96.560125
11
275.857976
21
95.719304
0
LINE
8
Layer 1
10
275.857976
20
95.719304
11
276.032642
21
94.750538
0
LINE
8
Layer 1
10
276.032642
20
94.750538
11
276.564065
21
94.014127
0
LINE
8
Layer 1
10
276.564065
20
94.014127
11
277.422036
21
93.544423
0
LINE
8
Layer 1
10
277.422036
20
93.544423
11
278.576347
21
93.375780
0
LINE
8
Layer 1
10
278.576347
20
93.375780
11
286.241987
21
93.377314
0
LINE
8
Layer 1
10
286.241987
20
93.377314
11
287.459482
21
93.274123
0
LINE
8
Layer 1
10
287.459482
20
93.274123
11
288.576727
21
92.972990
0
LINE
8
Layer 1
10
288.576727
20
92.972990
11
289.577911
21
92.488451
0
LINE
8
Layer 1
10
289.577911
20
92.488451
11
290.447220
21
91.835041
0
LINE
8
Layer 1
10
290.447220
20
91.835041
11
291.168840
21
91.027296
0
LINE
8
Layer 1
10
291.168840
20
91.027296
11
291.726960
21
90.079750
0
LINE
8
Layer 1
10
291.726960
20
90.079750
11
292.105766
21
89.006939
0
LINE
8
Layer 1
10
292.105766
20
89.006939
11
292.289446
21
87.823397
0
LINE
8
Layer 1
10
292.289446
20
87.823397
11
292.255804
21
86.642710
0
LINE
8
Layer 1
10
292.255804
20
86.642710
11
292.007791
21
85.526004
0
LINE
8
Layer 1
10
292.007791
20
85.526004
11
291.561421
21
84.499890
0
LINE
8
Layer 1
10
291.561421
20
84.499890
11
290.932711
21
83.590977
0
LINE
8
Layer 1
10
290.932711
20
83.590977
11
290.137676
21
82.825877
0
LINE
8
Layer 1
10
290.137676
20
82.825877
11
289.192332
21
82.231199
0
LINE
8
Layer 1
10
289.192332
20
82.231199
11
288.112695
21
81.833554
0
LINE
8
Layer 1
10
288.112695
20
81.833554
11
286.914781
21
81.659553
0
LINE
8
Layer 1
10
286.914781
20
81.659553
11
279.986078
21
81.561386
0
LINE
8
Layer 1
10
279.986078
20
81.561386
11
272.989550
21
81.610364
0
LINE
8
Layer 1
10
272.989550
20
81.610364
11
272.989550
21
84.691809
0
LINE
8
Layer 1
10
272.989550
20
84.691809
11
275.991656
21
84.691890
0
LINE
8
Layer 1
10
275.991656
20
84.691890
11
285.904217
21
84.701385
0
LINE
8
Layer 1
10
285.904217
20
84.701385
11
286.751337
21
84.796253
0
LINE
8
Layer 1
10
286.751337
20
84.796253
11
287.495163
21
85.081960
0
LINE
8
Layer 1
10
287.495163
20
85.081960
11
288.118587
21
85.570806
0
LINE
8
Layer 1
10
288.118587
20
85.570806
11
288.604501
21
86.275092
0
LINE
8
Layer 1
10
288.604501
20
86.275092
11
288.882671
21
87.086809
0
LINE
8
Layer 1
10
288.882671
20
87.086809
11
288.888991
21
87.877368
0
LINE
8
Layer 1
10
288.888991
20
87.877368
11
288.626452
21
88.649715
0
LINE
8
Layer 1
10
288.626452
20
88.649715
11
288.098040
21
89.406793
0
LINE
8
Layer 1
10
288.098040
20
89.406793
11
288.098040
21
89.406793
0
LINE
8
Layer 1
10
258.232814
20
90.430308
11
250.894592
21
90.430405
0
LINE
8
Layer 1
10
250.894592
20
90.430405
11
250.894592
21
92.813445
0
LINE
8
Layer 1
10
250.894592
20
92.813445
11
262.239848
21
92.813445
0
LINE
8
Layer 1
10
262.239848
20
92.813445
11
261.934291
21
94.369250
0
LINE
8
Layer 1
10
261.934291
20
94.369250
11
261.316799
21
95.669174
0
LINE
8
Layer 1
10
261.316799
20
95.669174
11
260.385367
21
96.709913
0
LINE
8
Layer 1
10
260.385367
20
96.709913
11
259.137990
21
97.488170
0
LINE
8
Layer 1
10
259.137990
20
97.488170
11
257.948937
21
97.929119
0
LINE
8
Layer 1
10
257.948937
20
97.929119
11
256.643959
21
98.206120
0
LINE
8
Layer 1
10
256.643959
20
98.206120
11
255.267393
21
98.288913
0
LINE
8
Layer 1
10
255.267393
20
98.288913
11
253.863577
21
98.147241
0
LINE
8
Layer 1
10
253.863577
20
98.147241
11
252.476848
21
97.750844
0
LINE
8
Layer 1
10
252.476848
20
97.750844
11
251.151542
21
97.069464
0
LINE
8
Layer 1
10
251.151542
20
97.069464
11
249.931996
21
96.072842
0
LINE
8
Layer 1
10
249.931996
20
96.072842
11
248.862548
21
94.730719
0
LINE
8
Layer 1
10
248.862548
20
94.730719
11
248.139914
21
93.154745
0
LINE
8
Layer 1
10
248.139914
20
93.154745
11
247.885088
21
91.499936
0
LINE
8
Layer 1
10
247.885088
20
91.499936
11
248.059094
21
89.848209
0
LINE
8
Layer 1
10
248.059094
20
89.848209
11
248.622954
21
88.281482
0
LINE
8
Layer 1
10
248.622954
20
88.281482
11
249.537690
21
86.881670
0
LINE
8
Layer 1
10
249.537690
20
86.881670
11
250.764326
21
85.730691
0
LINE
8
Layer 1
10
250.764326
20
85.730691
11
252.263884
21
84.910462
0
LINE
8
Layer 1
10
252.263884
20
84.910462
11
253.997387
21
84.502900
0
LINE
8
Layer 1
10
253.997387
20
84.502900
11
256.562350
21
84.481311
0
LINE
8
Layer 1
10
256.562350
20
84.481311
11
257.787467
21
84.664784
0
LINE
8
Layer 1
10
257.787467
20
84.664784
11
258.962888
21
84.999247
0
LINE
8
Layer 1
10
258.962888
20
84.999247
11
260.080022
21
85.500807
0
LINE
8
Layer 1
10
260.080022
20
85.500807
11
261.130277
21
86.185571
0
LINE
8
Layer 1
10
261.130277
20
86.185571
11
262.105065
21
87.069648
0
LINE
8
Layer 1
10
262.105065
20
87.069648
11
262.995793
21
88.169144
0
LINE
8
Layer 1
10
262.995793
20
88.169144
11
263.430762
21
87.841790
0
LINE
8
Layer 1
10
263.430762
20
87.841790
11
264.462907
21
86.771652
0
LINE
8
Layer 1
10
264.462907
20
86.771652
11
264.718065
21
86.351696
0
LINE
8
Layer 1
10
264.718065
20
86.351696
11
264.798127
21
85.966134
0
LINE
8
Layer 1
10
264.798127
20
85.966134
11
264.702231
21
85.583208
0
LINE
8
Layer 1
10
264.702231
20
85.583208
11
264.429515
21
85.171156
0
LINE
8
Layer 1
10
264.429515
20
85.171156
11
263.350163
21
84.132639
0
LINE
8
Layer 1
10
263.350163
20
84.132639
11
261.839832
21
83.070387
0
LINE
8
Layer 1
10
261.839832
20
83.070387
11
260.055750
21
82.243199
0
LINE
8
Layer 1
10
260.055750
20
82.243199
11
258.074843
21
81.687319
0
LINE
8
Layer 1
10
258.074843
20
81.687319
11
255.974038
21
81.438990
0
LINE
8
Layer 1
10
255.974038
20
81.438990
11
253.830260
21
81.534455
0
LINE
8
Layer 1
10
253.830260
20
81.534455
11
251.720435
21
82.009958
0
LINE
8
Layer 1
10
251.720435
20
82.009958
11
249.721489
21
82.901742
0
LINE
8
Layer 1
10
249.721489
20
82.901742
11
247.910347
21
84.246052
0
LINE
8
Layer 1
10
247.910347
20
84.246052
11
246.931764
21
85.304699
0
LINE
8
Layer 1
10
246.931764
20
85.304699
11
246.131961
21
86.472693
0
LINE
8
Layer 1
10
246.131961
20
86.472693
11
245.517000
21
87.729950
0
LINE
8
Layer 1
10
245.517000
20
87.729950
11
245.092943
21
89.056385
0
LINE
8
Layer 1
10
245.092943
20
89.056385
11
244.865852
21
90.431914
0
LINE
8
Layer 1
10
244.865852
20
90.431914
11
244.841788
21
91.836452
0
LINE
8
Layer 1
10
244.841788
20
91.836452
11
245.026814
21
93.249915
0
LINE
8
Layer 1
10
245.026814
20
93.249915
11
245.426991
21
94.652219
0
LINE
8
Layer 1
10
245.426991
20
94.652219
11
246.041308
21
95.980571
0
LINE
8
Layer 1
10
246.041308
20
95.980571
11
246.860754
21
97.209049
0
LINE
8
Layer 1
10
246.860754
20
97.209049
11
247.857863
21
98.314213
0
LINE
8
Layer 1
10
247.857863
20
98.314213
11
249.005169
21
99.272623
0
LINE
8
Layer 1
10
249.005169
20
99.272623
11
250.275207
21
100.060839
0
LINE
8
Layer 1
10
250.275207
20
100.060839
11
251.640509
21
100.655420
0
LINE
8
Layer 1
10
251.640509
20
100.655420
11
253.073611
21
101.032926
0
LINE
8
Layer 1
10
253.073611
20
101.032926
11
254.547046
21
101.169917
0
LINE
8
Layer 1
10
254.547046
20
101.169917
11
257.303952
21
101.013917
0
LINE
8
Layer 1
10
257.303952
20
101.013917
11
260.006622
21
100.481862
0
LINE
8
Layer 1
10
260.006622
20
100.481862
11
261.133310
21
100.083371
0
LINE
8
Layer 1
10
261.133310
20
100.083371
11
262.133847
21
99.558417
0
LINE
8
Layer 1
10
262.133847
20
99.558417
11
263.009210
21
98.912591
0
LINE
8
Layer 1
10
263.009210
20
98.912591
11
263.760377
21
98.151482
0
LINE
8
Layer 1
10
263.760377
20
98.151482
11
264.388326
21
97.280680
0
LINE
8
Layer 1
10
264.388326
20
97.280680
11
264.894035
21
96.305776
0
LINE
8
Layer 1
10
264.894035
20
96.305776
11
265.542646
21
94.066015
0
LINE
8
Layer 1
10
265.542646
20
94.066015
11
265.695225
21
92.299006
0
LINE
8
Layer 1
10
265.695225
20
92.299006
11
265.751709
21
90.430211
0
LINE
8
Layer 1
10
265.751709
20
90.430211
11
258.232814
21
90.430308
0
LINE
8
Layer 1
10
258.232814
20
90.430308
11
258.232814
21
90.430308
0
LINE
8
Layer 1
10
94.823816
20
85.297375
11
93.968222
21
86.535947
0
LINE
8
Layer 1
10
93.968222
20
86.535947
11
93.322145
21
87.794445
0
LINE
8
Layer 1
10
93.322145
20
87.794445
11
92.882409
21
89.071019
0
LINE
8
Layer 1
10
92.882409
20
89.071019
11
92.645840
21
90.363823
0
LINE
8
Layer 1
10
92.645840
20
90.363823
11
92.609264
21
91.671010
0
LINE
8
Layer 1
10
92.609264
20
91.671010
11
92.769506
21
92.990732
0
LINE
8
Layer 1
10
92.769506
20
92.990732
11
93.123390
21
94.321142
0
LINE
8
Layer 1
10
93.123390
20
94.321142
11
93.667744
21
95.660393
0
LINE
8
Layer 1
10
93.667744
20
95.660393
11
94.358008
21
96.900717
0
LINE
8
Layer 1
10
94.358008
20
96.900717
11
95.166881
21
97.975762
0
LINE
8
Layer 1
10
95.166881
20
97.975762
11
96.089293
21
98.887301
0
LINE
8
Layer 1
10
96.089293
20
98.887301
11
97.120173
21
99.637109
0
LINE
8
Layer 1
10
97.120173
20
99.637109
11
98.254450
21
100.226959
0
LINE
8
Layer 1
10
98.254450
20
100.226959
11
99.487053
21
100.658625
0
LINE
8
Layer 1
10
99.487053
20
100.658625
11
100.812912
21
100.933881
0
LINE
8
Layer 1
10
100.812912
20
100.933881
11
102.226957
21
101.054501
0
LINE
8
Layer 1
10
102.226957
20
101.054501
11
110.231755
21
101.069713
0
LINE
8
Layer 1
10
110.231755
20
101.069713
11
110.231755
21
81.681548
0
LINE
8
Layer 1
10
110.231755
20
81.681548
11
107.277256
21
81.681548
0
LINE
8
Layer 1
10
107.277256
20
81.681548
11
107.277256
21
98.025604
0
LINE
8
Layer 1
10
107.277256
20
98.025604
11
104.497632
21
98.091001
0
LINE
8
Layer 1
10
104.497632
20
98.091001
11
101.864487
21
97.988300
0
LINE
8
Layer 1
10
101.864487
20
97.988300
11
100.405448
21
97.643369
0
LINE
8
Layer 1
10
100.405448
20
97.643369
11
99.112670
21
97.031910
0
LINE
8
Layer 1
10
99.112670
20
97.031910
11
98.008274
21
96.189413
0
LINE
8
Layer 1
10
98.008274
20
96.189413
11
97.114380
21
95.151368
0
LINE
8
Layer 1
10
97.114380
20
95.151368
11
96.453108
21
93.953267
0
LINE
8
Layer 1
10
96.453108
20
93.953267
11
96.046579
21
92.630599
0
LINE
8
Layer 1
10
96.046579
20
92.630599
11
95.916913
21
91.218855
0
LINE
8
Layer 1
10
95.916913
20
91.218855
11
96.086230
21
89.753525
0
LINE
8
Layer 1
10
96.086230
20
89.753525
11
96.540595
21
88.431870
0
LINE
8
Layer 1
10
96.540595
20
88.431870
11
97.262352
21
87.265483
0
LINE
8
Layer 1
10
97.262352
20
87.265483
11
98.209253
21
86.278056
0
LINE
8
Layer 1
10
98.209253
20
86.278056
11
99.339053
21
85.493281
0
LINE
8
Layer 1
10
99.339053
20
85.493281
11
100.609507
21
84.934851
0
LINE
8
Layer 1
10
100.609507
20
84.934851
11
101.978368
21
84.626456
0
LINE
8
Layer 1
10
101.978368
20
84.626456
11
103.403391
21
84.591789
0
LINE
8
Layer 1
10
103.403391
20
84.591789
11
104.842330
21
84.854541
0
LINE
8
Layer 1
10
104.842330
20
84.854541
11
106.061157
21
85.255711
0
LINE
8
Layer 1
10
106.061157
20
85.255711
11
106.061706
21
82.279282
0
LINE
8
Layer 1
10
106.061706
20
82.279282
11
104.548750
21
81.818935
0
LINE
8
Layer 1
10
104.548750
20
81.818935
11
103.014525
21
81.610437
0
LINE
8
Layer 1
10
103.014525
20
81.610437
11
101.485125
21
81.647521
0
LINE
8
Layer 1
10
101.485125
20
81.647521
11
99.986646
21
81.923922
0
LINE
8
Layer 1
10
99.986646
20
81.923922
11
98.545181
21
82.433374
0
LINE
8
Layer 1
10
98.545181
20
82.433374
11
97.186824
21
83.169610
0
LINE
8
Layer 1
10
97.186824
20
83.169610
11
95.937672
21
84.126366
0
LINE
8
Layer 1
10
95.937672
20
84.126366
11
94.823816
21
85.297375
0
LINE
8
Layer 1
10
94.823816
20
85.297375
11
94.823816
21
85.297375
0
LINE
8
Layer 1
10
72.180137
20
87.842049
11
72.180137
21
81.673958
0
LINE
8
Layer 1
10
72.180137
20
81.673958
11
69.137271
21
81.673958
0
LINE
8
Layer 1
10
69.137271
20
81.673958
11
69.137271
21
97.940984
0
LINE
8
Layer 1
10
69.137271
20
97.940984
11
66.177865
21
98.025900
0
LINE
8
Layer 1
10
66.177865
20
98.025900
11
64.754453
21
98.022526
0
LINE
8
Layer 1
10
64.754453
20
98.022526
11
63.365489
21
97.891245
0
LINE
8
Layer 1
10
63.365489
20
97.891245
11
61.938598
21
97.507152
0
LINE
8
Layer 1
10
61.938598
20
97.507152
11
60.687810
21
96.861698
0
LINE
8
Layer 1
10
60.687810
20
96.861698
11
59.632799
21
95.991239
0
LINE
8
Layer 1
10
59.632799
20
95.991239
11
58.793241
21
94.932131
0
LINE
8
Layer 1
10
58.793241
20
94.932131
11
58.188810
21
93.720730
0
LINE
8
Layer 1
10
58.188810
20
93.720730
11
57.839181
21
92.393391
0
LINE
8
Layer 1
10
57.839181
20
92.393391
11
57.764030
21
90.986470
0
LINE
8
Layer 1
10
57.764030
20
90.986470
11
57.983032
21
89.536323
0
LINE
8
Layer 1
10
57.983032
20
89.536323
11
58.466934
21
88.266902
0
LINE
8
Layer 1
10
58.466934
20
88.266902
11
59.207849
21
87.146727
0
LINE
8
Layer 1
10
59.207849
20
87.146727
11
60.163069
21
86.198876
0
LINE
8
Layer 1
10
60.163069
20
86.198876
11
61.289890
21
85.446427
0
LINE
8
Layer 1
10
61.289890
20
85.446427
11
62.545605
21
84.912460
0
LINE
8
Layer 1
10
62.545605
20
84.912460
11
63.887508
21
84.620053
0
LINE
8
Layer 1
10
63.887508
20
84.620053
11
65.272893
21
84.592284
0
LINE
8
Layer 1
10
65.272893
20
84.592284
11
66.659054
21
84.852232
0
LINE
8
Layer 1
10
66.659054
20
84.852232
11
67.969910
21
85.260411
0
LINE
8
Layer 1
10
67.969910
20
85.260411
11
67.969910
21
82.231400
0
LINE
8
Layer 1
10
67.969910
20
82.231400
11
66.593128
21
81.839847
0
LINE
8
Layer 1
10
66.593128
20
81.839847
11
65.246124
21
81.620003
0
LINE
8
Layer 1
10
65.246124
20
81.620003
11
63.930281
21
81.574436
0
LINE
8
Layer 1
10
63.930281
20
81.574436
11
62.646983
21
81.705716
0
LINE
8
Layer 1
10
62.646983
20
81.705716
11
61.397614
21
82.016414
0
LINE
8
Layer 1
10
61.397614
20
82.016414
11
60.183557
21
82.509097
0
LINE
8
Layer 1
10
60.183557
20
82.509097
11
59.006195
21
83.186336
0
LINE
8
Layer 1
10
59.006195
20
83.186336
11
57.866913
21
84.050699
0
LINE
8
Layer 1
10
57.866913
20
84.050699
11
56.827250
21
85.060184
0
LINE
8
Layer 1
10
56.827250
20
85.060184
11
55.979968
21
86.139509
0
LINE
8
Layer 1
10
55.979968
20
86.139509
11
55.323180
21
87.284217
0
LINE
8
Layer 1
10
55.323180
20
87.284217
11
54.855000
21
88.489852
0
LINE
8
Layer 1
10
54.855000
20
88.489852
11
54.573541
21
89.751958
0
LINE
8
Layer 1
10
54.573541
20
89.751958
11
54.476916
21
91.066078
0
LINE
8
Layer 1
10
54.476916
20
91.066078
11
54.563240
21
92.427756
0
LINE
8
Layer 1
10
54.563240
20
92.427756
11
54.830624
21
93.832535
0
LINE
8
Layer 1
10
54.830624
20
93.832535
11
55.251691
21
95.175090
0
LINE
8
Layer 1
10
55.251691
20
95.175090
11
55.813402
21
96.403294
0
LINE
8
Layer 1
10
55.813402
20
96.403294
11
56.513551
21
97.505462
0
LINE
8
Layer 1
10
56.513551
20
97.505462
11
57.349933
21
98.469912
0
LINE
8
Layer 1
10
57.349933
20
98.469912
11
58.320342
21
99.284959
0
LINE
8
Layer 1
10
58.320342
20
99.284959
11
59.422572
21
99.938922
0
LINE
8
Layer 1
10
59.422572
20
99.938922
11
60.654418
21
100.420117
0
LINE
8
Layer 1
10
60.654418
20
100.420117
11
62.013675
21
100.716861
0
LINE
8
Layer 1
10
62.013675
20
100.716861
11
64.488557
21
100.926442
0
LINE
8
Layer 1
10
64.488557
20
100.926442
11
67.007628
21
100.937731
0
LINE
8
Layer 1
10
67.007628
20
100.937731
11
72.180137
21
100.812607
0
LINE
8
Layer 1
10
72.180137
20
100.812607
11
72.180137
21
87.842049
0
LINE
8
Layer 1
10
72.180137
20
87.842049
11
72.180137
21
87.842049
0
LINE
8
Layer 1
10
205.295059
20
86.245960
11
204.559043
21
87.879609
0
LINE
8
Layer 1
10
204.559043
20
87.879609
11
204.092513
21
89.503000
0
LINE
8
Layer 1
10
204.092513
20
89.503000
11
203.892702
21
91.101126
0
LINE
8
Layer 1
10
203.892702
20
91.101126
11
203.956843
21
92.658981
0
LINE
8
Layer 1
10
203.956843
20
92.658981
11
204.282169
21
94.161558
0
LINE
8
Layer 1
10
204.282169
20
94.161558
11
204.865912
21
95.593851
0
LINE
8
Layer 1
10
204.865912
20
95.593851
11
205.705305
21
96.940854
0
LINE
8
Layer 1
10
205.705305
20
96.940854
11
206.797582
21
98.187561
0
LINE
8
Layer 1
10
206.797582
20
98.187561
11
208.163959
21
99.317712
0
LINE
8
Layer 1
10
208.163959
20
99.317712
11
209.672556
21
100.193591
0
LINE
8
Layer 1
10
209.672556
20
100.193591
11
211.287802
21
100.810614
0
LINE
8
Layer 1
10
211.287802
20
100.810614
11
212.974127
21
101.164198
0
LINE
8
Layer 1
10
212.974127
20
101.164198
11
214.695960
21
101.249760
0
LINE
8
Layer 1
10
214.695960
20
101.249760
11
216.417731
21
101.062715
0
LINE
8
Layer 1
10
216.417731
20
101.062715
11
218.103870
21
100.598482
0
LINE
8
Layer 1
10
218.103870
20
100.598482
11
219.718805
21
99.852476
0
LINE
8
Layer 1
10
219.718805
20
99.852476
11
221.135857
21
98.907349
0
LINE
8
Layer 1
10
221.135857
20
98.907349
11
222.341727
21
97.807480
0
LINE
8
Layer 1
10
222.341727
20
97.807480
11
223.327668
21
96.572051
0
LINE
8
Layer 1
10
223.327668
20
96.572051
11
224.084936
21
95.220243
0
LINE
8
Layer 1
10
224.084936
20
95.220243
11
224.604782
21
93.771237
0
LINE
8
Layer 1
10
224.604782
20
93.771237
11
224.878461
21
92.244216
0
LINE
8
Layer 1
10
224.878461
20
92.244216
11
224.897226
21
90.658359
0
LINE
8
Layer 1
10
224.897226
20
90.658359
11
224.652332
21
89.032850
0
LINE
8
Layer 1
10
224.652332
20
89.032850
11
224.205245
21
87.657446
0
LINE
8
Layer 1
10
224.205245
20
87.657446
11
223.531917
21
86.358974
0
LINE
8
Layer 1
10
223.531917
20
86.358974
11
222.657421
21
85.161994
0
LINE
8
Layer 1
10
222.657421
20
85.161994
11
221.606828
21
84.091063
0
LINE
8
Layer 1
10
221.606828
20
84.091063
11
220.405209
21
83.170741
0
LINE
8
Layer 1
10
220.405209
20
83.170741
11
219.077636
21
82.425585
0
LINE
8
Layer 1
10
219.077636
20
82.425585
11
217.649181
21
81.880156
0
LINE
8
Layer 1
10
217.649181
20
81.880156
11
216.144916
21
81.559010
0
LINE
8
Layer 1
10
216.144916
20
81.559010
11
214.506242
21
81.435687
0
LINE
8
Layer 1
10
214.506242
20
81.435687
11
212.944819
21
81.507340
0
LINE
8
Layer 1
10
212.944819
20
81.507340
11
211.462369
21
81.777794
0
LINE
8
Layer 1
10
211.462369
20
81.777794
11
210.060618
21
82.250874
0
LINE
8
Layer 1
10
210.060618
20
82.250874
11
208.741287
21
82.930405
0
LINE
8
Layer 1
10
208.741287
20
82.930405
11
207.506101
21
83.820213
0
LINE
8
Layer 1
10
207.506101
20
83.820213
11
206.356784
21
84.924123
0
LINE
8
Layer 1
10
206.356784
20
84.924123
11
205.295059
21
86.245960
0
LINE
8
Layer 1
10
220.717710
20
87.700294
11
221.312158
21
88.864152
0
LINE
8
Layer 1
10
221.312158
20
88.864152
11
221.681242
21
90.042433
0
LINE
8
Layer 1
10
221.681242
20
90.042433
11
221.827892
21
91.218198
0
LINE
8
Layer 1
10
221.827892
20
91.218198
11
221.755040
21
92.374508
0
LINE
8
Layer 1
10
221.755040
20
92.374508
11
221.465616
21
93.494426
0
LINE
8
Layer 1
10
221.465616
20
93.494426
11
220.962553
21
94.561011
0
LINE
8
Layer 1
10
220.962553
20
94.561011
11
220.248779
21
95.557325
0
LINE
8
Layer 1
10
220.248779
20
95.557325
11
219.327228
21
96.466431
0
LINE
8
Layer 1
10
219.327228
20
96.466431
11
217.956495
21
97.390075
0
LINE
8
Layer 1
10
217.956495
20
97.390075
11
216.488948
21
97.964577
0
LINE
8
Layer 1
10
216.488948
20
97.964577
11
214.931889
21
98.218738
0
LINE
8
Layer 1
10
214.931889
20
98.218738
11
213.292623
21
98.181360
0
LINE
8
Layer 1
10
213.292623
20
98.181360
11
212.270189
21
97.990333
0
LINE
8
Layer 1
10
212.270189
20
97.990333
11
211.281431
21
97.642096
0
LINE
8
Layer 1
10
211.281431
20
97.642096
11
209.486856
21
96.541806
0
LINE
8
Layer 1
10
209.486856
20
96.541806
11
208.072727
21
95.016118
0
LINE
8
Layer 1
10
208.072727
20
95.016118
11
207.559525
21
94.136134
0
LINE
8
Layer 1
10
207.559525
20
94.136134
11
207.202870
21
93.200662
0
LINE
8
Layer 1
10
207.202870
20
93.200662
11
206.985405
21
92.162153
0
LINE
8
Layer 1
10
206.985405
20
92.162153
11
206.924686
21
91.145094
0
LINE
8
Layer 1
10
206.924686
20
91.145094
11
207.017893
21
90.157686
0
LINE
8
Layer 1
10
207.017893
20
90.157686
11
207.262209
21
89.208130
0
LINE
8
Layer 1
10
207.262209
20
89.208130
11
207.654814
21
88.304625
0
LINE
8
Layer 1
10
207.654814
20
88.304625
11
208.192888
21
87.455371
0
LINE
8
Layer 1
10
208.192888
20
87.455371
11
208.873614
21
86.668570
0
LINE
8
Layer 1
10
208.873614
20
86.668570
11
209.694171
21
85.952422
0
LINE
8
Layer 1
10
209.694171
20
85.952422
11
211.025082
21
85.134522
0
LINE
8
Layer 1
10
211.025082
20
85.134522
11
212.445235
21
84.620133
0
LINE
8
Layer 1
10
212.445235
20
84.620133
11
213.916728
21
84.405554
0
LINE
8
Layer 1
10
213.916728
20
84.405554
11
215.401659
21
84.487084
0
LINE
8
Layer 1
10
215.401659
20
84.487084
11
216.862125
21
84.861023
0
LINE
8
Layer 1
10
216.862125
20
84.861023
11
218.260223
21
85.523672
0
LINE
8
Layer 1
10
218.260223
20
85.523672
11
219.558053
21
86.471329
0
LINE
8
Layer 1
10
219.558053
20
86.471329
11
220.717710
21
87.700294
0
LINE
8
Layer 1
10
220.717710
20
87.700294
11
220.717710
21
87.700294
0
LINE
8
Layer 1
10
141.341679
20
81.489199
11
138.838958
21
82.099661
0
LINE
8
Layer 1
10
138.838958
20
82.099661
11
136.665581
21
83.147608
0
LINE
8
Layer 1
10
136.665581
20
83.147608
11
134.861060
21
84.567915
0
LINE
8
Layer 1
10
134.861060
20
84.567915
11
133.464907
21
86.295456
0
LINE
8
Layer 1
10
133.464907
20
86.295456
11
132.516632
21
88.265106
0
LINE
8
Layer 1
10
132.516632
20
88.265106
11
132.055748
21
90.411739
0
LINE
8
Layer 1
10
132.055748
20
90.411739
11
132.121766
21
92.670231
0
LINE
8
Layer 1
10
132.121766
20
92.670231
11
132.754197
21
94.975454
0
LINE
8
Layer 1
10
132.754197
20
94.975454
11
133.569470
21
96.543846
0
LINE
8
Layer 1
10
133.569470
20
96.543846
11
134.654745
21
97.922052
0
LINE
8
Layer 1
10
134.654745
20
97.922052
11
135.970249
21
99.089676
0
LINE
8
Layer 1
10
135.970249
20
99.089676
11
137.476211
21
100.026323
0
LINE
8
Layer 1
10
137.476211
20
100.026323
11
139.132861
21
100.711597
0
LINE
8
Layer 1
10
139.132861
20
100.711597
11
140.900427
21
101.125103
0
LINE
8
Layer 1
10
140.900427
20
101.125103
11
142.739139
21
101.246445
0
LINE
8
Layer 1
10
142.739139
20
101.246445
11
144.609224
21
101.055228
0
LINE
8
Layer 1
10
144.609224
20
101.055228
11
146.396447
21
100.560217
0
LINE
8
Layer 1
10
146.396447
20
100.560217
11
148.026018
21
99.797301
0
LINE
8
Layer 1
10
148.026018
20
99.797301
11
149.473288
21
98.795068
0
LINE
8
Layer 1
10
149.473288
20
98.795068
11
150.713602
21
97.582105
0
LINE
8
Layer 1
10
150.713602
20
97.582105
11
151.722309
21
96.187001
0
LINE
8
Layer 1
10
151.722309
20
96.187001
11
152.474757
21
94.638342
0
LINE
8
Layer 1
10
152.474757
20
94.638342
11
152.946292
21
92.964718
0
LINE
8
Layer 1
10
152.946292
20
92.964718
11
153.112264
21
91.194715
0
LINE
8
Layer 1
10
153.112264
20
91.194715
11
152.918795
21
89.395196
0
LINE
8
Layer 1
10
152.918795
20
89.395196
11
152.357498
21
87.672562
0
LINE
8
Layer 1
10
152.357498
20
87.672562
11
151.472056
21
86.072213
0
LINE
8
Layer 1
10
151.472056
20
86.072213
11
150.306156
21
84.639549
0
LINE
8
Layer 1
10
150.306156
20
84.639549
11
148.903482
21
83.419971
0
LINE
8
Layer 1
10
148.903482
20
83.419971
11
147.307720
21
82.458879
0
LINE
8
Layer 1
10
147.307720
20
82.458879
11
145.562554
21
81.801672
0
LINE
8
Layer 1
10
145.562554
20
81.801672
11
143.711670
21
81.493753
0
LINE
8
Layer 1
10
143.711670
20
81.493753
11
141.341679
21
81.489199
0
LINE
8
Layer 1
10
140.181868
20
97.906635
11
138.363782
21
97.053577
0
LINE
8
Layer 1
10
138.363782
20
97.053577
11
136.899518
21
95.875623
0
LINE
8
Layer 1
10
136.899518
20
95.875623
11
135.836022
21
94.344005
0
LINE
8
Layer 1
10
135.836022
20
94.344005
11
135.220242
21
92.429958
0
LINE
8
Layer 1
10
135.220242
20
92.429958
11
135.125954
21
90.558537
0
LINE
8
Layer 1
10
135.125954
20
90.558537
11
135.528579
21
88.863384
0
LINE
8
Layer 1
10
135.528579
20
88.863384
11
136.412393
21
87.355537
0
LINE
8
Layer 1
10
136.412393
20
87.355537
11
137.761670
21
86.046037
0
LINE
8
Layer 1
10
137.761670
20
86.046037
11
139.718119
21
84.903733
0
LINE
8
Layer 1
10
139.718119
20
84.903733
11
140.726664
21
84.569896
0
LINE
8
Layer 1
10
140.726664
20
84.569896
11
141.751818
21
84.391979
0
LINE
8
Layer 1
10
141.751818
20
84.391979
11
142.790875
21
84.368267
0
LINE
8
Layer 1
10
142.790875
20
84.368267
11
143.841130
21
84.497044
0
LINE
8
Layer 1
10
143.841130
20
84.497044
11
145.964421
21
85.205198
0
LINE
8
Layer 1
10
145.964421
20
85.205198
11
147.720882
21
86.306767
0
LINE
8
Layer 1
10
147.720882
20
86.306767
11
149.003318
21
87.743050
0
LINE
8
Layer 1
10
149.003318
20
87.743050
11
149.454985
21
88.585966
0
LINE
8
Layer 1
10
149.454985
20
88.585966
11
149.773994
21
89.511668
0
LINE
8
Layer 1
10
149.773994
20
89.511668
11
149.955631
21
90.519858
0
LINE
8
Layer 1
10
149.955631
20
90.519858
11
149.995177
21
91.610241
0
LINE
8
Layer 1
10
149.995177
20
91.610241
11
149.742055
21
93.209750
0
LINE
8
Layer 1
10
149.742055
20
93.209750
11
149.112934
21
94.645197
0
LINE
8
Layer 1
10
149.112934
20
94.645197
11
148.156736
21
95.882545
0
LINE
8
Layer 1
10
148.156736
20
95.882545
11
146.922384
21
96.887763
0
LINE
8
Layer 1
10
146.922384
20
96.887763
11
145.458799
21
97.626814
0
LINE
8
Layer 1
10
145.458799
20
97.626814
11
143.814903
21
98.065667
0
LINE
8
Layer 1
10
143.814903
20
98.065667
11
142.039619
21
98.170285
0
LINE
8
Layer 1
10
142.039619
20
98.170285
11
140.181868
21
97.906635
0
LINE
8
Layer 1
10
140.181868
20
97.906635
11
140.181868
21
97.906635
0
LINE
8
Layer 1
10
112.565888
20
90.487992
11
112.565904
21
100.996155
0
LINE
8
Layer 1
10
112.565904
20
100.996155
11
115.795540
21
100.996155
0
LINE
8
Layer 1
10
115.795540
20
100.996155
11
115.895275
21
99.250786
0
LINE
8
Layer 1
10
115.895275
20
99.250786
11
117.307566
21
100.057680
0
LINE
8
Layer 1
10
117.307566
20
100.057680
11
119.314960
21
100.912394
0
LINE
8
Layer 1
10
119.314960
20
100.912394
11
121.364359
21
101.237112
0
LINE
8
Layer 1
10
121.364359
20
101.237112
11
123.369537
21
101.067947
0
LINE
8
Layer 1
10
123.369537
20
101.067947
11
125.244265
21
100.441012
0
LINE
8
Layer 1
10
125.244265
20
100.441012
11
126.902315
21
99.392417
0
LINE
8
Layer 1
10
126.902315
20
99.392417
11
128.257461
21
97.958276
0
LINE
8
Layer 1
10
128.257461
20
97.958276
11
129.223473
21
96.174701
0
LINE
8
Layer 1
10
129.223473
20
96.174701
11
129.714125
21
94.077804
0
LINE
8
Layer 1
10
129.714125
20
94.077804
11
129.898822
21
90.999587
0
LINE
8
Layer 1
10
129.898822
20
90.999587
11
129.906560
21
87.897974
0
LINE
8
Layer 1
10
129.906560
20
87.897974
11
129.792382
21
81.641951
0
LINE
8
Layer 1
10
129.792382
20
81.641951
11
126.765326
21
81.641951
0
LINE
8
Layer 1
10
126.765326
20
81.641951
11
126.764995
21
85.328720
0
LINE
8
Layer 1
10
126.764995
20
85.328720
11
126.731163
21
92.996992
0
LINE
8
Layer 1
10
126.731163
20
92.996992
11
126.586750
21
94.104929
0
LINE
8
Layer 1
10
126.586750
20
94.104929
11
126.252149
21
95.111442
0
LINE
8
Layer 1
10
126.252149
20
95.111442
11
125.745001
21
96.002124
0
LINE
8
Layer 1
10
125.745001
20
96.002124
11
125.082946
21
96.762569
0
LINE
8
Layer 1
10
125.082946
20
96.762569
11
124.283624
21
97.378370
0
LINE
8
Layer 1
10
124.283624
20
97.378370
11
123.364678
21
97.835122
0
LINE
8
Layer 1
10
123.364678
20
97.835122
11
122.343748
21
98.118418
0
LINE
8
Layer 1
10
122.343748
20
98.118418
11
121.238474
21
98.213851
0
LINE
8
Layer 1
10
121.238474
20
98.213851
11
120.155703
21
98.113712
0
LINE
8
Layer 1
10
120.155703
20
98.113712
11
119.155477
21
97.828860
0
LINE
8
Layer 1
10
119.155477
20
97.828860
11
118.255571
21
97.372937
0
LINE
8
Layer 1
10
118.255571
20
97.372937
11
117.473757
21
96.759585
0
LINE
8
Layer 1
10
117.473757
20
96.759585
11
116.827808
21
96.002449
0
LINE
8
Layer 1
10
116.827808
20
96.002449
11
116.335497
21
95.115171
0
LINE
8
Layer 1
10
116.335497
20
95.115171
11
116.014597
21
94.111393
0
LINE
8
Layer 1
10
116.014597
20
94.111393
11
115.882881
21
93.004760
0
LINE
8
Layer 1
10
115.882881
20
93.004760
11
115.858819
21
81.672908
0
LINE
8
Layer 1
10
115.858819
20
81.672908
11
112.565880
21
81.672908
0
LINE
8
Layer 1
10
112.565880
20
81.672908
11
112.565888
21
90.487992
0
LINE
8
Layer 1
10
112.565888
20
90.487992
11
112.565888
21
90.487992
0
LINE
8
Layer 1
10
81.451838
20
89.155953
11
82.581410
21
85.998769
0
LINE
8
Layer 1
10
82.581410
20
85.998769
11
84.919080
21
92.392880
0
LINE
8
Layer 1
10
84.919080
20
92.392880
11
87.570077
21
99.838976
0
LINE
8
Layer 1
10
87.570077
20
99.838976
11
87.865950
21
100.500567
0
LINE
8
Layer 1
10
87.865950
20
100.500567
11
88.264127
21
100.905372
0
LINE
8
Layer 1
10
88.264127
20
100.905372
11
88.787339
21
101.087538
0
LINE
8
Layer 1
10
88.787339
20
101.087538
11
89.458316
21
101.081211
0
LINE
8
Layer 1
10
89.458316
20
101.081211
11
91.183313
21
101.070666
0
LINE
8
Layer 1
10
91.183313
20
101.070666
11
83.782531
21
81.596233
0
LINE
8
Layer 1
10
83.782531
20
81.596233
11
82.020528
21
81.622911
0
LINE
8
Layer 1
10
82.020528
20
81.622911
11
81.529586
21
81.834433
0
LINE
8
Layer 1
10
81.529586
20
81.834433
11
81.191268
21
82.209099
0
LINE
8
Layer 1
10
81.191268
20
82.209099
11
74.005677
21
101.000128
0
LINE
8
Layer 1
10
74.005677
20
101.000128
11
77.150693
21
101.000128
0
LINE
8
Layer 1
10
77.150693
20
101.000128
11
81.451838
21
89.155953
0
LINE
8
Layer 1
10
81.451838
20
89.155953
11
81.451838
21
89.155953
0
LINE
8
Layer 1
10
234.576714
20
87.253923
11
235.054542
21
86.017809
0
LINE
8
Layer 1
10
235.054542
20
86.017809
11
240.511793
21
101.036802
0
LINE
8
Layer 1
10
240.511793
20
101.036802
11
243.612440
21
101.036802
0
LINE
8
Layer 1
10
243.612440
20
101.036802
11
240.525019
21
92.851136
0
LINE
8
Layer 1
10
240.525019
20
92.851136
11
236.504807
21
82.376433
0
LINE
8
Layer 1
10
236.504807
20
82.376433
11
235.987517
21
81.859141
0
LINE
8
Layer 1
10
235.987517
20
81.859141
11
235.261506
21
81.620876
0
LINE
8
Layer 1
10
235.261506
20
81.620876
11
234.312625
21
81.782159
0
LINE
8
Layer 1
10
234.312625
20
81.782159
11
233.899248
21
81.973180
0
LINE
8
Layer 1
10
233.899248
20
81.973180
11
233.665385
21
82.224408
0
LINE
8
Layer 1
10
233.665385
20
82.224408
11
226.504558
21
100.911018
0
LINE
8
Layer 1
10
226.504558
20
100.911018
11
226.697715
21
101.023027
0
LINE
8
Layer 1
10
226.697715
20
101.023027
11
228.340719
21
101.125572
0
LINE
8
Layer 1
10
228.340719
20
101.125572
11
229.283754
21
100.912728
0
LINE
8
Layer 1
10
229.283754
20
100.912728
11
229.877659
21
100.160465
0
LINE
8
Layer 1
10
229.877659
20
100.160465
11
230.473271
21
98.644751
0
LINE
8
Layer 1
10
230.473271
20
98.644751
11
234.576714
21
87.253923
0
LINE
8
Layer 1
10
234.576714
20
87.253923
11
234.576714
21
87.253923
0
LINE
8
Layer 1
10
153.333325
20
221.814977
11
153.220623
21
230.358413
0
LINE
8
Layer 1
10
153.220623
20
230.358413
11
152.965939
21
232.113213
0
LINE
8
Layer 1
10
152.965939
20
232.113213
11
153.258060
21
232.347468
0
LINE
8
Layer 1
10
153.258060
20
232.347468
11
153.523074
21
232.404942
0
LINE
8
Layer 1
10
153.523074
20
232.404942
11
166.387228
21
223.969793
0
LINE
8
Layer 1
10
166.387228
20
223.969793
11
158.686383
21
219.307744
0
LINE
8
Layer 1
10
158.686383
20
219.307744
11
158.134464
21
219.249032
0
LINE
8
Layer 1
10
158.134464
20
219.249032
11
157.542382
21
219.437452
0
LINE
8
Layer 1
10
157.542382
20
219.437452
11
153.333325
21
221.814977
0
LINE
8
Layer 1
10
153.333325
20
221.814977
11
153.333325
21
221.814977
0
LINE
8
Layer 1
10
153.064269
20
253.759958
11
153.221769
21
238.226955
0
LINE
8
Layer 1
10
153.221769
20
238.226955
11
153.388829
21
236.988168
0
LINE
8
Layer 1
10
153.388829
20
236.988168
11
152.045454
21
236.266588
0
LINE
8
Layer 1
10
152.045454
20
236.266588
11
122.297945
21
216.157715
0
LINE
8
Layer 1
10
122.297945
20
216.157715
11
121.187573
21
215.495450
0
LINE
8
Layer 1
10
121.187573
20
215.495450
11
121.187355
21
216.942565
0
LINE
8
Layer 1
10
121.187355
20
216.942565
11
121.120264
21
228.042568
0
LINE
8
Layer 1
10
121.120264
20
228.042568
11
121.343448
21
229.173518
0
LINE
8
Layer 1
10
121.343448
20
229.173518
11
122.099071
21
230.024107
0
LINE
8
Layer 1
10
122.099071
20
230.024107
11
147.105047
21
249.267029
0
LINE
8
Layer 1
10
147.105047
20
249.267029
11
153.064269
21
253.759958
0
LINE
8
Layer 1
10
141.549903
20
244.350322
11
141.111568
21
243.768384
0
LINE
8
Layer 1
10
141.111568
20
243.768384
11
140.623103
21
243.252764
0
LINE
8
Layer 1
10
140.623103
20
243.252764
11
134.918718
21
239.037636
0
LINE
8
Layer 1
10
134.918718
20
239.037636
11
128.375045
21
233.877444
0
LINE
8
Layer 1
10
128.375045
20
233.877444
11
125.221091
21
231.655530
0
LINE
8
Layer 1
10
125.221091
20
231.655530
11
123.739134
21
230.450929
0
LINE
8
Layer 1
10
123.739134
20
230.450929
11
122.540090
21
229.087764
0
LINE
8
Layer 1
10
122.540090
20
229.087764
11
122.099402
21
228.310005
0
LINE
8
Layer 1
10
122.099402
20
228.310005
11
121.792733
21
227.448546
0
LINE
8
Layer 1
10
121.792733
20
227.448546
11
121.641180
21
226.488702
0
LINE
8
Layer 1
10
121.641180
20
226.488702
11
121.665838
21
225.415786
0
LINE
8
Layer 1
10
121.665838
20
225.415786
11
121.759066
21
222.319130
0
LINE
8
Layer 1
10
121.759066
20
222.319130
11
121.722367
21
219.205990
0
LINE
8
Layer 1
10
121.722367
20
219.205990
11
122.064424
21
217.343962
0
LINE
8
Layer 1
10
122.064424
20
217.343962
11
123.953857
21
218.028859
0
LINE
8
Layer 1
10
123.953857
20
218.028859
11
124.249599
21
218.288977
0
LINE
8
Layer 1
10
124.249599
20
218.288977
11
130.485056
21
222.631770
0
LINE
8
Layer 1
10
130.485056
20
222.631770
11
140.576320
21
229.296915
0
LINE
8
Layer 1
10
140.576320
20
229.296915
11
146.060830
21
233.218619
0
LINE
8
Layer 1
10
146.060830
20
233.218619
11
150.585580
21
236.102588
0
LINE
8
Layer 1
10
150.585580
20
236.102588
11
151.606827
21
236.841341
0
LINE
8
Layer 1
10
151.606827
20
236.841341
11
152.294778
21
237.724405
0
LINE
8
Layer 1
10
152.294778
20
237.724405
11
152.661034
21
238.794993
0
LINE
8
Layer 1
10
152.661034
20
238.794993
11
152.717198
21
240.096315
0
LINE
8
Layer 1
10
152.717198
20
240.096315
11
152.623165
21
244.321235
0
LINE
8
Layer 1
10
152.623165
20
244.321235
11
152.668961
21
248.555438
0
LINE
8
Layer 1
10
152.668961
20
248.555438
11
152.668961
21
251.777161
0
LINE
8
Layer 1
10
152.668961
20
251.777161
11
152.310150
21
252.047864
0
LINE
8
Layer 1
10
152.310150
20
252.047864
11
149.598965
21
250.267621
0
LINE
8
Layer 1
10
149.598965
20
250.267621
11
141.549903
21
244.350322
0
LINE
8
Layer 1
10
141.549903
20
244.350322
11
141.549903
21
244.350322
0
LINE
8
Layer 1
10
267.339385
20
91.281709
11
267.339401
21
101.226615
0
LINE
8
Layer 1
10
267.339401
20
101.226615
11
270.515802
21
101.226615
0
LINE
8
Layer 1
10
270.515802
20
101.226615
11
270.515802
21
81.621555
0
LINE
8
Layer 1
10
270.515802
20
81.621555
11
267.339353
21
81.621555
0
LINE
8
Layer 1
10
267.339353
20
81.621555
11
267.339385
21
91.281709
0
LINE
8
Layer 1
10
267.339385
20
91.281709
11
267.339385
21
91.281709
0
LINE
8
Layer 1
10
164.754659
20
101.133453
11
167.779244
21
101.211242
0
LINE
8
Layer 1
10
167.779244
20
101.211242
11
167.779244
21
81.670534
0
LINE
8
Layer 1
10
167.779244
20
81.670534
11
164.663159
21
81.670534
0
LINE
8
Layer 1
10
164.663159
20
81.670534
11
164.754659
21
101.133453
0
LINE
8
Layer 1
10
164.754659
20
101.133453
11
164.754659
21
101.133453
0
LINE
8
Layer 1
10
155.205318
20
156.375457
11
155.327306
21
145.663947
0
LINE
8
Layer 1
10
155.327306
20
145.663947
11
121.173927
21
138.194758
0
LINE
8
Layer 1
10
121.173927
20
138.194758
11
121.173927
21
146.681988
0
LINE
8
Layer 1
10
121.173927
20
146.681988
11
155.205318
21
156.375457
0
LINE
8
Layer 1
10
136.409121
20
150.284541
11
132.913264
21
149.250772
0
LINE
8
Layer 1
10
132.913264
20
149.250772
11
129.077214
21
148.154522
0
LINE
8
Layer 1
10
129.077214
20
148.154522
11
126.837660
21
147.457777
0
LINE
8
Layer 1
10
126.837660
20
147.457777
11
124.576420
21
146.890809
0
LINE
8
Layer 1
10
124.576420
20
146.890809
11
123.039903
21
146.568632
0
LINE
8
Layer 1
10
123.039903
20
146.568632
11
122.178503
21
146.094268
0
LINE
8
Layer 1
10
122.178503
20
146.094268
11
121.796292
21
145.226666
0
LINE
8
Layer 1
10
121.796292
20
145.226666
11
121.697344
21
143.724775
0
LINE
8
Layer 1
10
121.697344
20
143.724775
11
121.573030
21
141.231520
0
LINE
8
Layer 1
10
121.573030
20
141.231520
11
121.839276
21
138.821754
0
LINE
8
Layer 1
10
121.839276
20
138.821754
11
122.501644
21
139.249519
0
LINE
8
Layer 1
10
122.501644
20
139.249519
11
123.053494
21
139.503494
0
LINE
8
Layer 1
10
123.053494
20
139.503494
11
129.610813
21
140.617879
0
LINE
8
Layer 1
10
129.610813
20
140.617879
11
135.464615
21
141.849860
0
LINE
8
Layer 1
10
135.464615
20
141.849860
11
139.935339
21
142.778565
0
LINE
8
Layer 1
10
139.935339
20
142.778565
11
143.933992
21
143.957610
0
LINE
8
Layer 1
10
143.933992
20
143.957610
11
146.387263
21
144.357972
0
LINE
8
Layer 1
10
146.387263
20
144.357972
11
152.749770
21
145.741801
0
LINE
8
Layer 1
10
152.749770
20
145.741801
11
153.884730
21
146.006745
0
LINE
8
Layer 1
10
153.884730
20
146.006745
11
154.490008
21
146.354483
0
LINE
8
Layer 1
10
154.490008
20
146.354483
11
154.732972
21
146.994805
0
LINE
8
Layer 1
10
154.732972
20
146.994805
11
154.780990
21
148.137501
0
LINE
8
Layer 1
10
154.780990
20
148.137501
11
154.781992
21
152.366195
0
LINE
8
Layer 1
10
154.781992
20
152.366195
11
154.781992
21
155.478388
0
LINE
8
Layer 1
10
154.781992
20
155.478388
11
152.420592
21
154.957425
0
LINE
8
Layer 1
10
152.420592
20
154.957425
11
149.096235
21
153.829217
0
LINE
8
Layer 1
10
149.096235
20
153.829217
11
140.261498
21
151.483385
0
LINE
8
Layer 1
10
140.261498
20
151.483385
11
136.409121
21
150.284541
0
LINE
8
Layer 1
10
136.409121
20
150.284541
11
136.409121
21
150.284541
0
LINE
8
Layer 1
10
214.640181
20
102.757576
11
212.069379
21
102.684228
0
LINE
8
Layer 1
10
212.069379
20
102.684228
11
212.943420
21
106.089572
0
LINE
8
Layer 1
10
212.943420
20
106.089572
11
215.817288
21
106.089572
0
LINE
8
Layer 1
10
215.817288
20
106.089572
11
214.640181
21
102.757576
0
LINE
8
Layer 1
10
214.640181
20
102.757576
11
214.640181
21
102.757576
0
LINE
8
Layer 1
10
269.472795
20
102.947325
11
268.404720
21
103.153970
0
LINE
8
Layer 1
10
268.404720
20
103.153970
11
267.692315
21
103.644401
0
LINE
8
Layer 1
10
267.692315
20
103.644401
11
267.412132
21
104.326175
0
LINE
8
Layer 1
10
267.412132
20
104.326175
11
267.640723
21
105.106849
0
LINE
8
Layer 1
10
267.640723
20
105.106849
11
268.334722
21
105.715283
0
LINE
8
Layer 1
10
268.334722
20
105.715283
11
269.202560
21
105.965613
0
LINE
8
Layer 1
10
269.202560
20
105.965613
11
269.933533
21
105.599310
0
LINE
8
Layer 1
10
269.933533
20
105.599310
11
270.475624
21
104.887256
0
LINE
8
Layer 1
10
270.475624
20
104.887256
11
270.591328
21
104.296762
0
LINE
8
Layer 1
10
270.591328
20
104.296762
11
270.442101
21
103.769801
0
LINE
8
Layer 1
10
270.442101
20
103.769801
11
270.058928
21
103.316585
0
LINE
8
Layer 1
10
270.058928
20
103.316585
11
269.472795
21
102.947325
0
LINE
8
Layer 1
10
269.472795
20
102.947325
11
269.472795
21
102.947325
0
LINE
8
Layer 1
10
167.321004
20
103.270432
11
166.607878
21
102.947834
0
LINE
8
Layer 1
10
166.607878
20
102.947834
11
165.961824
21
102.888830
0
LINE
8
Layer 1
10
165.961824
20
102.888830
11
165.420897
21
103.127586
0
LINE
8
Layer 1
10
165.420897
20
103.127586
11
165.023149
21
103.698264
0
LINE
8
Layer 1
10
165.023149
20
103.698264
11
164.940629
21
104.654236
0
LINE
8
Layer 1
10
164.940629
20
104.654236
11
165.268354
21
105.575763
0
LINE
8
Layer 1
10
165.268354
20
105.575763
11
165.689909
21
105.958439
0
LINE
8
Layer 1
10
165.689909
20
105.958439
11
166.198950
21
106.089519
0
LINE
8
Layer 1
10
166.198950
20
106.089519
11
166.740757
21
105.987856
0
LINE
8
Layer 1
10
166.740757
20
105.987856
11
167.260607
21
105.672301
0
LINE
8
Layer 1
10
167.260607
20
105.672301
11
167.711216
21
105.126859
0
LINE
8
Layer 1
10
167.711216
20
105.126859
11
167.851702
21
104.539828
0
LINE
8
Layer 1
10
167.851702
20
104.539828
11
167.711739
21
103.918565
0
LINE
8
Layer 1
10
167.711739
20
103.918565
11
167.321004
21
103.270432
0
LINE
8
Layer 1
10
167.321004
20
103.270432
11
167.321004
21
103.270432
0
LINE
8
Layer 1
10
192.254592
20
235.745286
11
191.638223
21
235.246464
0
LINE
8
Layer 1
10
191.638223
20
235.246464
11
192.254592
21
235.745286
0
LINE
8
Layer 1
10
192.254592
20
235.745286
11
192.254592
21
235.745286
0
LINE
8
Layer 1
10
191.326001
20
235.173996
11
190.842536
21
234.754101
0
LINE
8
Layer 1
10
190.842536
20
234.754101
11
191.326001
21
235.173996
0
LINE
8
Layer 1
10
191.326001
20
235.173996
11
191.326001
21
235.173996
0
LINE
8
Layer 1
10
153.611926
20
253.738456
11
153.495525
21
253.718262
0
LINE
8
Layer 1
10
153.495525
20
253.718262
11
153.532376
21
253.814001
0
LINE
8
Layer 1
10
153.532376
20
253.814001
11
153.611926
21
253.738456
0
LINE
8
Layer 1
10
153.611926
20
253.738456
11
153.611926
21
253.738456
0
LINE
8
Layer 1
10
141.619472
20
244.415402
11
149.598965
21
250.267621
0
LINE
8
Layer 1
10
149.598965
20
250.267621
11
152.310150
21
252.047864
0
LINE
8
Layer 1
10
152.310150
20
252.047864
11
152.668961
21
251.777161
0
LINE
8
Layer 1
10
152.668961
20
251.777161
11
152.668961
21
248.555438
0
LINE
8
Layer 1
10
152.668961
20
248.555438
11
152.623165
21
244.321235
0
LINE
8
Layer 1
10
152.623165
20
244.321235
11
152.717198
21
240.096315
0
LINE
8
Layer 1
10
152.717198
20
240.096315
11
152.661034
21
238.794993
0
LINE
8
Layer 1
10
152.661034
20
238.794993
11
152.294778
21
237.724405
0
LINE
8
Layer 1
10
152.294778
20
237.724405
11
151.606827
21
236.841341
0
LINE
8
Layer 1
10
151.606827
20
236.841341
11
150.585580
21
236.102588
0
LINE
8
Layer 1
10
150.585580
20
236.102588
11
146.060830
21
233.218619
0
LINE
8
Layer 1
10
146.060830
20
233.218619
11
140.576320
21
229.296915
0
LINE
8
Layer 1
10
140.576320
20
229.296915
11
130.485056
21
222.631770
0
LINE
8
Layer 1
10
130.485056
20
222.631770
11
124.249599
21
218.288977
0
LINE
8
Layer 1
10
124.249599
20
218.288977
11
123.953857
21
218.028859
0
LINE
8
Layer 1
10
123.953857
20
218.028859
11
122.064424
21
217.343962
0
LINE
8
Layer 1
10
122.064424
20
217.343962
11
121.722367
21
219.205990
0
LINE
8
Layer 1
10
121.722367
20
219.205990
11
121.759066
21
222.319130
0
LINE
8
Layer 1
10
121.759066
20
222.319130
11
121.665838
21
225.415786
0
LINE
8
Layer 1
10
121.665838
20
225.415786
11
121.641180
21
226.488702
0
LINE
8
Layer 1
10
121.641180
20
226.488702
11
121.792733
21
227.448546
0
LINE
8
Layer 1
10
121.792733
20
227.448546
11
122.099402
21
228.310005
0
LINE
8
Layer 1
10
122.099402
20
228.310005
11
122.540090
21
229.087764
0
LINE
8
Layer 1
10
122.540090
20
229.087764
11
123.739134
21
230.450929
0
LINE
8
Layer 1
10
123.739134
20
230.450929
11
125.221091
21
231.655530
0
LINE
8
Layer 1
10
125.221091
20
231.655530
11
128.375045
21
233.877444
0
LINE
8
Layer 1
10
128.375045
20
233.877444
11
134.918718
21
239.037636
0
LINE
8
Layer 1
10
134.918718
20
239.037636
11
140.623103
21
243.252764
0
LINE
8
Layer 1
10
140.623103
20
243.252764
11
141.619472
21
244.415402
0
LINE
8
Layer 1
10
141.619472
20
244.415402
11
141.619472
21
244.415402
0
LINE
8
Layer 1
10
136.520435
20
150.285962
11
140.261498
21
151.483385
0
LINE
8
Layer 1
10
140.261498
20
151.483385
11
149.096235
21
153.829217
0
LINE
8
Layer 1
10
149.096235
20
153.829217
11
152.420592
21
154.957425
0
LINE
8
Layer 1
10
152.420592
20
154.957425
11
154.781992
21
155.478388
0
LINE
8
Layer 1
10
154.781992
20
155.478388
11
154.781992
21
152.366195
0
LINE
8
Layer 1
10
154.781992
20
152.366195
11
154.780990
21
148.137501
0
LINE
8
Layer 1
10
154.780990
20
148.137501
11
154.732972
21
146.994805
0
LINE
8
Layer 1
10
154.732972
20
146.994805
11
154.490008
21
146.354483
0
LINE
8
Layer 1
10
154.490008
20
146.354483
11
153.884730
21
146.006745
0
LINE
8
Layer 1
10
153.884730
20
146.006745
11
152.749770
21
145.741801
0
LINE
8
Layer 1
10
152.749770
20
145.741801
11
146.387263
21
144.357972
0
LINE
8
Layer 1
10
146.387263
20
144.357972
11
143.933992
21
143.957610
0
LINE
8
Layer 1
10
143.933992
20
143.957610
11
139.935339
21
142.778565
0
LINE
8
Layer 1
10
139.935339
20
142.778565
11
135.464615
21
141.849860
0
LINE
8
Layer 1
10
135.464615
20
141.849860
11
129.610813
21
140.617879
0
LINE
8
Layer 1
10
129.610813
20
140.617879
11
123.053494
21
139.503494
0
LINE
8
Layer 1
10
123.053494
20
139.503494
11
122.501644
21
139.249519
0
LINE
8
Layer 1
10
122.501644
20
139.249519
11
121.839276
21
138.821754
0
LINE
8
Layer 1
10
121.839276
20
138.821754
11
121.573030
21
141.231520
0
LINE
8
Layer 1
10
121.573030
20
141.231520
11
121.697344
21
143.724775
0
LINE
8
Layer 1
10
121.697344
20
143.724775
11
121.796292
21
145.226666
0
LINE
8
Layer 1
10
121.796292
20
145.226666
11
122.178503
21
146.094268
0
LINE
8
Layer 1
10
122.178503
20
146.094268
11
123.039903
21
146.568632
0
LINE
8
Layer 1
10
123.039903
20
146.568632
11
124.576420
21
146.890809
0
LINE
8
Layer 1
10
124.576420
20
146.890809
11
126.837660
21
147.457777
0
LINE
8
Layer 1
10
126.837660
20
147.457777
11
129.077214
21
148.154522
0
LINE
8
Layer 1
10
129.077214
20
148.154522
11
132.913264
21
149.250772
0
LINE
8
Layer 1
10
132.913264
20
149.250772
11
136.520435
21
150.285962
0
LINE
8
Layer 1
10
136.520435
20
150.285962
11
136.520435
21
150.285962
 0 
ENDSEC
 0 
EOF